<svg width="92" height="25" viewBox="0 0 92 25" fill="none" xmlns="http://www.w3.org/2000/svg">
<g clip-path="url(#clip0_968_1637)">
<path d="M33.3345 6.78356V15.2713C33.3345 15.5691 33.45 15.6849 33.747 15.6849C36.1068 15.6849 38.2521 15.5526 40.3644 15.2548C40.81 15.1886 41.074 15.536 41.14 15.9828C41.206 16.4626 41.0245 16.8928 40.5955 16.9589C38.7967 17.2237 36.4699 17.3891 32.8724 17.3891C31.7503 17.3891 31.3872 17.0251 31.3872 15.9V6.78356C31.3872 6.18792 31.8493 5.9232 32.3608 5.9232C32.8724 5.9232 33.351 6.18792 33.351 6.78356H33.3345ZM45.0676 5.59229V21.0456C45.0676 21.6247 44.6055 21.8729 44.0939 21.8729C43.5824 21.8729 43.1368 21.6082 43.1368 21.0456V11.6479H38.6482C38.1861 11.6479 37.9716 11.2673 37.9716 10.7875C37.9716 10.3077 38.1861 9.92717 38.6482 9.92717H43.1368V5.5592C43.1368 4.98011 43.5989 4.73193 44.0939 4.73193C44.589 4.73193 45.0676 4.99666 45.0676 5.5592V5.59229Z" fill="#353535"/>
<path d="M48.7476 6.78367V15.1391C48.7476 15.4369 48.8631 15.5527 49.1601 15.5527C51.6355 15.5527 53.7807 15.4203 55.8765 15.1225C56.3221 15.0563 56.6191 15.4038 56.6521 15.8505C56.7181 16.3303 56.5366 16.7605 56.1076 16.8267C54.3088 17.0914 51.9985 17.2569 48.2855 17.2569C47.1633 17.2569 46.8003 16.8929 46.8003 15.7678V6.76712C46.8003 6.17149 47.2624 5.90676 47.7739 5.90676C48.2855 5.90676 48.7641 6.17149 48.7641 6.76712L48.7476 6.78367ZM59.8041 5.5924V10.738H61.9328C62.4444 10.738 62.6424 11.1185 62.6424 11.5984C62.6424 12.0782 62.4279 12.4753 61.9328 12.4753H59.8041V21.0623C59.8041 21.6414 59.342 21.8896 58.8304 21.8896C58.3189 21.8896 57.8568 21.6248 57.8568 21.0623V5.5924C57.8568 5.01332 58.3189 4.76514 58.8304 4.76514C59.342 4.76514 59.8041 5.02986 59.8041 5.5924Z" fill="#353535"/>
<path d="M77.9731 19.3085C77.9731 19.7718 77.7586 20.1523 77.2965 20.1523H62.3785C61.9164 20.1523 61.7019 19.7552 61.7019 19.3085C61.7019 18.8618 61.9164 18.4482 62.3785 18.4482H77.2965C77.7586 18.4482 77.9731 18.8287 77.9731 19.3085ZM75.7123 6.80024C75.7123 7.26351 75.4978 7.6606 75.0357 7.6606H66.2565C65.9595 7.6606 65.844 7.75987 65.844 8.05769V12.6077C65.844 12.9055 65.9595 13.0213 66.2565 13.0213H75.2172C75.6793 13.0213 75.8938 13.4018 75.8938 13.8486C75.8938 14.2953 75.6793 14.6924 75.2172 14.6924H65.3819C64.2598 14.6924 63.9132 14.3284 63.9132 13.2033V7.41242C63.9132 6.28734 64.2598 5.92334 65.3819 5.92334H75.0192C75.4813 5.92334 75.6958 6.32043 75.6958 6.76715L75.7123 6.80024Z" fill="#353535"/>
<path d="M86.4883 7.44548V11.1351C86.4883 12.2602 86.1253 12.6242 85.0031 12.6242H80.8115C80.498 12.6242 80.399 12.7234 80.399 13.0213V15.652C80.399 15.9498 80.498 16.0491 80.8115 16.0491C83.5674 16.0491 85.7127 15.9332 87.8085 15.6354C88.254 15.5692 88.5511 15.9167 88.5841 16.3469C88.6501 16.8267 88.4686 17.2569 88.0395 17.323C86.2408 17.5878 83.9305 17.7532 79.9864 17.7532C78.8643 17.7532 78.5012 17.3892 78.5012 16.2641V12.4587C78.5012 11.3336 78.8643 10.9862 79.9864 10.9862H84.1945C84.4915 10.9862 84.6071 10.8704 84.6071 10.5725V8.05766C84.6071 7.75984 84.4915 7.66057 84.1945 7.66057H79.1778C78.6992 7.66057 78.5012 7.26348 78.5012 6.80021C78.5012 6.33694 78.6992 5.93986 79.1778 5.93986H85.0031C86.1253 5.93986 86.4883 6.30385 86.4883 7.42893V7.44548ZM91.9836 5.57586V21.0292C91.9836 21.6083 91.5215 21.8565 90.9934 21.8565C90.5149 21.8565 90.0198 21.5917 90.0198 21.0292V5.5924C90.0198 5.01332 90.4984 4.76514 90.9934 4.76514C91.5215 4.76514 91.9836 5.02986 91.9836 5.5924V5.57586Z" fill="#353535"/>
<path opacity="0.68" d="M1.5017 16.4792C2.40933 15.6685 3.68 15.1225 4.83516 15.4534C5.64377 15.685 6.28735 16.3303 6.79892 17.0252C7.31049 17.7201 7.70655 18.4812 8.25112 19.1264C8.87821 19.871 9.5878 20.4335 10.3964 20.8637C11.6506 19.2919 12.7562 17.5877 13.5153 15.8505C13.9939 14.7585 14.0434 13.7327 14.7365 12.7068C15.4296 11.6976 16.3702 10.8207 17.4924 10.3243C19.3406 9.49705 21.2384 9.39778 23.1526 10.1258C23.7632 10.3574 24.3408 10.6718 24.8524 11.0689C24.1263 4.76508 18.7631 -0.0992442 12.2777 2.77791e-05C5.41274 0.0992998 0 5.90671 0 12.773V18.4481C0.396054 17.7035 0.891121 17.0252 1.5017 16.4792ZM15.5946 4.40109C16.9973 4.40109 18.136 5.54271 18.136 6.94907C18.136 8.35542 16.9973 9.49705 15.5946 9.49705C14.1919 9.49705 13.0533 8.35542 13.0533 6.94907C13.0533 5.54271 14.1919 4.40109 15.5946 4.40109ZM4.68664 10.4732C5.52825 10.4732 6.22135 11.1516 6.22135 12.0119C6.22135 12.8723 5.54475 13.5507 4.68664 13.5507C3.82852 13.5507 3.15193 12.8723 3.15193 12.0119C3.15193 11.1516 3.82852 10.4732 4.68664 10.4732Z" fill="#FFCD29"/>
<path d="M17.4758 10.3243C16.3537 10.8206 15.4131 11.6975 14.72 12.7068C14.0269 13.7326 13.9774 14.7584 13.4988 15.8504C12.7397 17.5877 11.6341 19.2918 10.3799 20.8636C13.1358 22.3693 16.7497 22.2369 19.9017 22.4024C22.8886 20.1687 24.8524 16.6611 24.9184 12.6737C24.9184 12.1112 24.9019 11.5652 24.8358 11.0357C24.3243 10.6386 23.7467 10.3243 23.1361 10.0926C21.2219 9.36464 19.3076 9.48046 17.4758 10.2912V10.3243Z" fill="#EFC33B"/>
<path d="M17.4758 10.3243C16.3537 10.8206 15.4131 11.6975 14.72 12.7068C14.0269 13.7326 13.9774 14.7584 13.4988 15.8504C12.7397 17.5877 11.6341 19.2918 10.3799 20.8636C13.1358 22.3693 16.7497 22.2369 19.9017 22.4024C22.8886 20.1687 24.8524 16.6611 24.9184 12.6737C24.9184 12.1112 24.9019 11.5652 24.8358 11.0357C24.3243 10.6386 23.7467 10.3243 23.1361 10.0926C21.2219 9.36464 19.3076 9.48046 17.4758 10.2912V10.3243Z" fill="#F7941E"/>
<path d="M15.5946 9.49684C16.9981 9.49684 18.1359 8.35607 18.1359 6.94886C18.1359 5.54165 16.9981 4.40088 15.5946 4.40088C14.191 4.40088 13.0532 5.54165 13.0532 6.94886C13.0532 8.35607 14.191 9.49684 15.5946 9.49684Z" fill="#EFC33B"/>
<path d="M15.5946 9.49684C16.9981 9.49684 18.1359 8.35607 18.1359 6.94886C18.1359 5.54165 16.9981 4.40088 15.5946 4.40088C14.191 4.40088 13.0532 5.54165 13.0532 6.94886C13.0532 8.35607 14.191 9.49684 15.5946 9.49684Z" fill="#EFC33B"/>
<path d="M15.5946 9.49684C16.9981 9.49684 18.1359 8.35607 18.1359 6.94886C18.1359 5.54165 16.9981 4.40088 15.5946 4.40088C14.191 4.40088 13.0532 5.54165 13.0532 6.94886C13.0532 8.35607 14.191 9.49684 15.5946 9.49684Z" fill="#FF7F1E"/>
<path d="M4.68656 13.534C5.52818 13.534 6.22127 12.8556 6.22127 11.9953C6.22127 11.1349 5.54468 10.4565 4.68656 10.4565C3.82845 10.4565 3.15186 11.1349 3.15186 11.9953C3.15186 12.8556 3.82845 13.534 4.68656 13.534Z" fill="#EFC33B"/>
<path d="M4.68656 13.534C5.52818 13.534 6.22127 12.8556 6.22127 11.9953C6.22127 11.1349 5.54468 10.4565 4.68656 10.4565C3.82845 10.4565 3.15186 11.1349 3.15186 11.9953C3.15186 12.8556 3.82845 13.534 4.68656 13.534Z" fill="#EFC33B"/>
<path d="M4.68656 13.534C5.52818 13.534 6.22127 12.8556 6.22127 11.9953C6.22127 11.1349 5.54468 10.4565 4.68656 10.4565C3.82845 10.4565 3.15186 11.1349 3.15186 11.9953C3.15186 12.8556 3.82845 13.534 4.68656 13.534Z" fill="#FF7F1E"/>
<path d="M2.88789 25H6.6174C6.94744 24.636 7.29399 24.3217 7.54153 24.0735C8.51516 23.0973 9.48879 22.0218 10.3964 20.8802C9.60431 20.45 8.87821 19.8875 8.25112 19.143C7.70655 18.4811 7.31049 17.7201 6.79892 17.0417C6.28735 16.3633 5.66027 15.7181 4.83516 15.4699C3.6635 15.1224 2.40933 15.685 1.5017 16.4957C0.874619 17.0582 0.379552 17.7366 0 18.4646V22.1211C0 23.7095 1.28717 25.0166 2.88789 25.0166V25Z" fill="#EFC33B"/>
<path d="M2.88789 25H6.6174C6.94744 24.636 7.29399 24.3217 7.54153 24.0735C8.51516 23.0973 9.48879 22.0218 10.3964 20.8802C9.60431 20.45 8.87821 19.8875 8.25112 19.143C7.70655 18.4811 7.31049 17.7201 6.79892 17.0417C6.28735 16.3633 5.66027 15.7181 4.83516 15.4699C3.6635 15.1224 2.40933 15.685 1.5017 16.4957C0.874619 17.0582 0.379552 17.7366 0 18.4646V22.1211C0 23.7095 1.28717 25.0166 2.88789 25.0166V25Z" fill="#F7941E"/>
<path d="M7.52496 24.0736C7.27742 24.3218 6.93087 24.6362 6.60083 25.0002H12.1786C15.0665 25.0002 17.7398 24.0405 19.9016 22.4191C16.7497 22.2536 13.1357 22.386 10.3798 20.8804C9.47222 22.022 8.49859 23.114 7.52496 24.0736Z" fill="#EFC33B"/>
<path d="M7.52496 24.0736C7.27742 24.3218 6.93087 24.6362 6.60083 25.0002H12.1786C15.0665 25.0002 17.7398 24.0405 19.9016 22.4191C16.7497 22.2536 13.1357 22.386 10.3798 20.8804C9.47222 22.022 8.49859 23.114 7.52496 24.0736Z" fill="#EFC33B"/>
<path d="M7.52496 24.0736C7.27742 24.3218 6.93087 24.6362 6.60083 25.0002H12.1786C15.0665 25.0002 17.7398 24.0405 19.9016 22.4191C16.7497 22.2536 13.1357 22.386 10.3798 20.8804C9.47222 22.022 8.49859 23.114 7.52496 24.0736Z" fill="#FF7F1E"/>
</g>
<defs>
<clipPath id="clip0_968_1637">
<rect width="92" height="25" fill="white"/>
</clipPath>
</defs>
</svg>
