<svg width="20" height="20" viewBox="0 0 20 20" fill="none" xmlns="http://www.w3.org/2000/svg">
<g id="priority">
<mask id="mask0_615_13302" style="mask-type:alpha" maskUnits="userSpaceOnUse" x="0" y="0" width="20" height="20">
<rect id="Bounding box" width="20" height="20" fill="#D9D9D9"/>
</mask>
<g mask="url(#mask0_615_13302)">
<path id="priority_2" d="M7.50006 16.5836C6.36581 16.5836 5.4017 16.1866 4.60773 15.3926C3.81374 14.5987 3.41675 13.6346 3.41675 12.5003V7.50031C3.41675 6.36606 3.81374 5.40194 4.60773 4.60797C5.4017 3.81399 6.36581 3.41699 7.50006 3.41699H12.5001C13.6343 3.41699 14.5984 3.81399 15.3924 4.60797C16.1864 5.40194 16.5834 6.36606 16.5834 7.50031V12.5003C16.5834 13.6346 16.1864 14.5987 15.3924 15.3926C14.5984 16.1866 13.6343 16.5836 12.5001 16.5836H7.50006ZM8.93756 12.3577L12.8991 8.41697L12.1251 7.64295L8.93756 10.8096L7.52089 9.41378L6.76771 10.1878L8.93756 12.3577ZM7.50006 15.5003H12.5001C13.3334 15.5003 14.0417 15.2086 14.6251 14.6253C15.2084 14.042 15.5001 13.3336 15.5001 12.5003V7.50031C15.5001 6.66697 15.2084 5.95864 14.6251 5.37531C14.0417 4.79197 13.3334 4.50031 12.5001 4.50031H7.50006C6.66673 4.50031 5.95839 4.79197 5.37506 5.37531C4.79173 5.95864 4.50006 6.66697 4.50006 7.50031V12.5003C4.50006 13.3336 4.79173 14.042 5.37506 14.6253C5.95839 15.2086 6.66673 15.5003 7.50006 15.5003Z" fill="#0C9D61"/>
</g>
</g>
</svg>
