<svg width="39" height="55" viewBox="0 0 39 55" fill="none" xmlns="http://www.w3.org/2000/svg">
<path fill-rule="evenodd" clip-rule="evenodd" d="M21.0941 53.3969C25.5821 46.8212 38 27.8709 38 19.5C38 9.28273 29.7173 1 19.5 1C9.28273 1 1 9.28273 1 19.5C1 27.8709 13.4179 46.8212 17.9059 53.3969C18.6809 54.5324 20.3191 54.5324 21.0941 53.3969ZM19.5 28.3478C24.3865 28.3478 28.3478 24.3865 28.3478 19.5C28.3478 14.6135 24.3865 10.6522 19.5 10.6522C14.6135 10.6522 10.6522 14.6135 10.6522 19.5C10.6522 24.3865 14.6135 28.3478 19.5 28.3478Z" fill="#FF8C35"/>
<path d="M21.0941 53.3969L21.507 53.6788L21.0941 53.3969ZM17.9059 53.3969L18.3189 53.115L17.9059 53.3969ZM37.5 19.5C37.5 21.4924 36.7551 24.1722 35.526 27.2159C34.3023 30.2462 32.6204 33.5855 30.7929 36.8791C27.1383 43.4653 22.9217 49.8323 20.6811 53.115L21.507 53.6788C23.7545 50.3859 27.9909 43.9898 31.6673 37.3643C33.5052 34.0519 35.2083 30.6731 36.4532 27.5904C37.6926 24.5212 38.5 21.6931 38.5 19.5H37.5ZM19.5 1.5C29.4411 1.5 37.5 9.55887 37.5 19.5H38.5C38.5 9.00659 29.9934 0.5 19.5 0.5V1.5ZM1.5 19.5C1.5 9.55887 9.55887 1.5 19.5 1.5V0.5C9.00659 0.5 0.5 9.00659 0.5 19.5H1.5ZM18.3189 53.115C16.0783 49.8323 11.8617 43.4653 8.20714 36.8791C6.37963 33.5855 4.69774 30.2462 3.47404 27.2159C2.24487 24.1722 1.5 21.4924 1.5 19.5H0.5C0.5 21.6931 1.30736 24.5212 2.54679 27.5904C3.79169 30.6731 5.49478 34.0519 7.33273 37.3643C11.0091 43.9898 15.2455 50.3859 17.493 53.6788L18.3189 53.115ZM20.6811 53.115C20.1046 53.9597 18.8954 53.9597 18.3189 53.115L17.493 53.6788C18.4664 55.1051 20.5336 55.1051 21.507 53.6788L20.6811 53.115ZM27.8478 19.5C27.8478 24.1104 24.1104 27.8478 19.5 27.8478V28.8478C24.6627 28.8478 28.8478 24.6627 28.8478 19.5H27.8478ZM19.5 11.1522C24.1104 11.1522 27.8478 14.8896 27.8478 19.5H28.8478C28.8478 14.3373 24.6627 10.1522 19.5 10.1522V11.1522ZM11.1522 19.5C11.1522 14.8896 14.8896 11.1522 19.5 11.1522V10.1522C14.3373 10.1522 10.1522 14.3373 10.1522 19.5H11.1522ZM19.5 27.8478C14.8896 27.8478 11.1522 24.1104 11.1522 19.5H10.1522C10.1522 24.6627 14.3373 28.8478 19.5 28.8478V27.8478Z" fill="#F85521"/>
</svg>
