<svg width="49" height="49" viewBox="0 0 49 49" fill="none" xmlns="http://www.w3.org/2000/svg">
<path d="M3.73858 35.2615C2.89414 33.4735 2.2266 31.6408 1.73598 29.7633C1.2454 27.8859 1.00011 25.9648 1.00011 24C1.00011 20.68 1.62987 17.56 2.88938 14.64C4.14894 11.72 5.85831 9.18 8.01751 7.02C10.1767 4.86 12.7158 3.15 15.6346 1.89C18.5536 0.629999 21.6724 0 24.9912 0C28.31 0 31.4302 0.629755 34.3519 1.88927C37.2735 3.14882 39.8149 4.8582 41.9762 7.0174C44.1374 9.1766 45.8483 11.7156 47.1091 14.6345C48.3698 17.5535 49.0001 20.6723 49.0001 23.9911C49.0001 27.3099 48.3701 30.4301 47.1101 33.3517C45.8501 36.2734 44.1401 38.8148 41.9801 40.9761C39.8201 43.1373 37.2801 44.8482 34.3601 46.1089C31.4401 47.3697 28.3201 48 25.0001 48C23.0354 48 21.1143 47.7547 19.2368 47.2641C17.3594 46.7735 15.5266 46.106 13.7386 45.2615L3.34118 48.3045C2.53603 48.5494 1.83258 48.371 1.23085 47.7693C0.629158 47.1675 0.450736 46.4641 0.695581 45.6589L3.73858 35.2615ZM3.53345 45.4667L12.0668 42.9333C12.7574 42.7556 13.3907 42.6718 13.9668 42.6821C14.5429 42.6923 15.154 42.865 15.8001 43.2C17.2223 43.9111 18.7112 44.4445 20.2668 44.8C21.8223 45.1556 23.4001 45.3333 25.0001 45.3333C30.9557 45.3333 36.0001 43.2667 40.1335 39.1333C44.2668 35 46.3335 29.9556 46.3335 24C46.3335 18.0444 44.2668 13 40.1335 8.86667C36.0001 4.73333 30.9557 2.66667 25.0001 2.66667C19.0446 2.66667 14.0001 4.73333 9.86678 8.86667C5.73345 13 3.66678 18.0444 3.66678 24C3.66678 25.6 3.84456 27.1778 4.20011 28.7333C4.55567 30.2889 5.089 31.7778 5.80011 33.2C6.11123 33.7778 6.28645 34.3889 6.32578 35.0333C6.36507 35.6778 6.27874 36.3111 6.06678 36.9333L3.53345 45.4667ZM23.6668 25.3333V32C23.6668 32.3778 23.7947 32.6944 24.0506 32.95C24.3065 33.2056 24.6236 33.3333 25.0019 33.3333C25.3802 33.3333 25.6967 33.2056 25.9514 32.95C26.2061 32.6944 26.3335 32.3778 26.3335 32V25.3333H33.0001C33.3779 25.3333 33.6946 25.2054 33.9501 24.9495C34.2057 24.6936 34.3335 24.3765 34.3335 23.9982C34.3335 23.6199 34.2057 23.3034 33.9501 23.0487C33.6946 22.794 33.3779 22.6667 33.0001 22.6667H26.3335V16C26.3335 15.6222 26.2055 15.3056 25.9496 15.05C25.6937 14.7944 25.3766 14.6667 24.9983 14.6667C24.62 14.6667 24.3035 14.7944 24.0488 15.05C23.7941 15.3056 23.6668 15.6222 23.6668 16V22.6667H17.0001C16.6223 22.6667 16.3057 22.7946 16.0501 23.0505C15.7946 23.3064 15.6668 23.6235 15.6668 24.0018C15.6668 24.3801 15.7946 24.6966 16.0501 24.9513C16.3057 25.206 16.6223 25.3333 17.0001 25.3333H23.6668Z" fill="#FFA562"/>
</svg>
