<svg width="24" height="24" viewBox="0 0 24 24" fill="none" xmlns="http://www.w3.org/2000/svg">
<g id="arrow_forward_ios">
<mask id="mask0_490_3335" style="mask-type:alpha" maskUnits="userSpaceOnUse" x="0" y="0" width="24" height="24">
<rect id="Bounding box" width="24" height="24" fill="#D9D9D9"/>
</mask>
<g mask="url(#mask0_490_3335)">
<path id="arrow_forward_ios_2" d="M15.1866 12L7.47124 4.28463C7.32381 4.13719 7.25105 3.95994 7.25297 3.75287C7.2549 3.54582 7.32958 3.36858 7.47702 3.22115C7.62445 3.07372 7.80169 3 8.00874 3C8.21579 3 8.39303 3.07372 8.54047 3.22115L16.177 10.8635C16.3386 11.025 16.4565 11.2051 16.5309 11.4038C16.6052 11.6026 16.6424 11.8013 16.6424 12C16.6424 12.1987 16.6052 12.3974 16.5309 12.5962C16.4565 12.7949 16.3386 12.975 16.177 13.1365L8.53472 20.7789C8.38728 20.9263 8.211 20.999 8.00587 20.9971C7.80073 20.9952 7.62445 20.9205 7.47702 20.7731C7.32958 20.6256 7.25587 20.4484 7.25587 20.2414C7.25587 20.0343 7.32958 19.8571 7.47702 19.7096L15.1866 12Z" fill="#1C1B1F"/>
</g>
</g>
</svg>
