<svg width="24" height="24" viewBox="0 0 24 24" fill="none" xmlns="http://www.w3.org/2000/svg">
<g id="calendar_month">
<mask id="mask0_482_1559" style="mask-type:alpha" maskUnits="userSpaceOnUse" x="0" y="0" width="24" height="24">
<rect id="Bounding box" width="24" height="24" fill="#D9D9D9"/>
</mask>
<g mask="url(#mask0_482_1559)">
<path id="calendar_month_2" d="M5.3077 21.5001C4.80257 21.5001 4.375 21.3251 4.025 20.9751C3.675 20.6251 3.5 20.1975 3.5 19.6924V6.30784C3.5 5.80271 3.675 5.37514 4.025 5.02514C4.375 4.67514 4.80257 4.50014 5.3077 4.50014H6.69233V3.15397C6.69233 2.93475 6.76573 2.75174 6.91253 2.60494C7.05931 2.45816 7.24232 2.38477 7.46155 2.38477C7.68077 2.38477 7.86378 2.45816 8.01058 2.60494C8.15736 2.75174 8.23075 2.93475 8.23075 3.15397V4.50014H15.8077V3.13474C15.8077 2.92192 15.8794 2.74372 16.023 2.60014C16.1666 2.45656 16.3448 2.38477 16.5576 2.38477C16.7704 2.38477 16.9486 2.45656 17.0922 2.60014C17.2358 2.74372 17.3076 2.92192 17.3076 3.13474V4.50014H18.6923C19.1974 4.50014 19.625 4.67514 19.975 5.02514C20.325 5.37514 20.5 5.80271 20.5 6.30784V19.6924C20.5 20.1975 20.325 20.6251 19.975 20.9751C19.625 21.3251 19.1974 21.5001 18.6923 21.5001H5.3077ZM5.3077 20.0001H18.6923C18.7692 20.0001 18.8397 19.9681 18.9038 19.904C18.9679 19.8398 19 19.7693 19 19.6924V10.3078H4.99997V19.6924C4.99997 19.7693 5.03202 19.8398 5.09612 19.904C5.16024 19.9681 5.23077 20.0001 5.3077 20.0001ZM4.99997 8.80787H19V6.30784C19 6.23091 18.9679 6.16038 18.9038 6.09627C18.8397 6.03217 18.7692 6.00012 18.6923 6.00012H5.3077C5.23077 6.00012 5.16024 6.03217 5.09612 6.09627C5.03202 6.16038 4.99997 6.23091 4.99997 6.30784V8.80787ZM12 14.077C11.7551 14.077 11.5465 13.9908 11.374 13.8184C11.2016 13.646 11.1154 13.4373 11.1154 13.1924C11.1154 12.9476 11.2016 12.7389 11.374 12.5665C11.5465 12.3941 11.7551 12.3078 12 12.3078C12.2448 12.3078 12.4535 12.3941 12.6259 12.5665C12.7984 12.7389 12.8846 12.9476 12.8846 13.1924C12.8846 13.4373 12.7984 13.646 12.6259 13.8184C12.4535 13.9908 12.2448 14.077 12 14.077ZM7.99998 14.077C7.75511 14.077 7.54646 13.9908 7.37403 13.8184C7.20159 13.646 7.11538 13.4373 7.11538 13.1924C7.11538 12.9476 7.20159 12.7389 7.37403 12.5665C7.54646 12.3941 7.75511 12.3078 7.99998 12.3078C8.24484 12.3078 8.45349 12.3941 8.62593 12.5665C8.79836 12.7389 8.88458 12.9476 8.88458 13.1924C8.88458 13.4373 8.79836 13.646 8.62593 13.8184C8.45349 13.9908 8.24484 14.077 7.99998 14.077ZM16 14.077C15.7551 14.077 15.5465 13.9908 15.374 13.8184C15.2016 13.646 15.1154 13.4373 15.1154 13.1924C15.1154 12.9476 15.2016 12.7389 15.374 12.5665C15.5465 12.3941 15.7551 12.3078 16 12.3078C16.2448 12.3078 16.4535 12.3941 16.6259 12.5665C16.7984 12.7389 16.8846 12.9476 16.8846 13.1924C16.8846 13.4373 16.7984 13.646 16.6259 13.8184C16.4535 13.9908 16.2448 14.077 16 14.077ZM12 18.0001C11.7551 18.0001 11.5465 17.9139 11.374 17.7415C11.2016 17.569 11.1154 17.3604 11.1154 17.1155C11.1154 16.8706 11.2016 16.662 11.374 16.4896C11.5465 16.3171 11.7551 16.2309 12 16.2309C12.2448 16.2309 12.4535 16.3171 12.6259 16.4896C12.7984 16.662 12.8846 16.8706 12.8846 17.1155C12.8846 17.3604 12.7984 17.569 12.6259 17.7415C12.4535 17.9139 12.2448 18.0001 12 18.0001ZM7.99998 18.0001C7.75511 18.0001 7.54646 17.9139 7.37403 17.7415C7.20159 17.569 7.11538 17.3604 7.11538 17.1155C7.11538 16.8706 7.20159 16.662 7.37403 16.4896C7.54646 16.3171 7.75511 16.2309 7.99998 16.2309C8.24484 16.2309 8.45349 16.3171 8.62593 16.4896C8.79836 16.662 8.88458 16.8706 8.88458 17.1155C8.88458 17.3604 8.79836 17.569 8.62593 17.7415C8.45349 17.9139 8.24484 18.0001 7.99998 18.0001ZM16 18.0001C15.7551 18.0001 15.5465 17.9139 15.374 17.7415C15.2016 17.569 15.1154 17.3604 15.1154 17.1155C15.1154 16.8706 15.2016 16.662 15.374 16.4896C15.5465 16.3171 15.7551 16.2309 16 16.2309C16.2448 16.2309 16.4535 16.3171 16.6259 16.4896C16.7984 16.662 16.8846 16.8706 16.8846 17.1155C16.8846 17.3604 16.7984 17.569 16.6259 17.7415C16.4535 17.9139 16.2448 18.0001 16 18.0001Z" fill="#FF7F1E"/>
</g>
</g>
</svg>
