<svg width="22" height="22" viewBox="0 0 22 22" fill="none" xmlns="http://www.w3.org/2000/svg">
<g id="Group 2098">
<circle id="Ellipse 309" cx="11" cy="11" r="11" fill="#EEEEEE"/>
<g id="location_on">
<mask id="mask0_532_556" style="mask-type:alpha" maskUnits="userSpaceOnUse" x="4" y="4" width="14" height="14">
<rect id="Bounding box" x="4.125" y="4.125" width="13.75" height="13.75" fill="#D9D9D9"/>
</mask>
<g mask="url(#mask0_532_556)">
<path id="location_on_2" d="M11 16.1706C10.8759 16.1706 10.7589 16.1491 10.6491 16.1061C10.5393 16.0632 10.4319 15.9987 10.3268 15.9128C9.94488 15.5786 9.5319 15.1871 9.08789 14.7383C8.64388 14.2895 8.2309 13.8073 7.84896 13.2917C7.46701 12.776 7.15191 12.2389 6.90365 11.6803C6.65538 11.1217 6.53125 10.5655 6.53125 10.0117C6.53125 8.7322 6.95616 7.66037 7.80599 6.79622C8.65582 5.93207 9.72049 5.5 11 5.5C12.27 5.5 13.3322 5.93207 14.1868 6.79622C15.0414 7.66037 15.4688 8.7322 15.4688 10.0117C15.4688 10.5655 15.3422 11.1241 15.0892 11.6875C14.8362 12.2509 14.5211 12.7904 14.1439 13.306C13.7667 13.8216 13.3561 14.3014 12.9121 14.7454C12.4681 15.1895 12.0551 15.5786 11.6732 15.9128C11.5681 15.9987 11.4607 16.0632 11.3509 16.1061C11.2411 16.1491 11.1241 16.1706 11 16.1706ZM11 11C11.2865 11 11.5299 10.8997 11.7305 10.6992C11.931 10.4987 12.0312 10.2552 12.0312 9.96875C12.0312 9.68229 11.931 9.4388 11.7305 9.23828C11.5299 9.03776 11.2865 8.9375 11 8.9375C10.7135 8.9375 10.4701 9.03776 10.2695 9.23828C10.069 9.4388 9.96875 9.68229 9.96875 9.96875C9.96875 10.2552 10.069 10.4987 10.2695 10.6992C10.4701 10.8997 10.7135 11 11 11Z" fill="#CACACA"/>
</g>
</g>
</g>
</svg>
