<svg width="144" height="144" viewBox="0 0 144 144" fill="none" xmlns="http://www.w3.org/2000/svg">
<mask id="mask0_641_2895" style="mask-type:alpha" maskUnits="userSpaceOnUse" x="0" y="0" width="144" height="144">
<rect width="144" height="144" fill="#D9D9D9"/>
</mask>
<g mask="url(#mask0_641_2895)">
<path d="M65.9998 126.103C59.0921 125.373 52.6806 123.48 46.7654 120.426C40.85 117.373 35.7078 113.409 31.3386 108.536C26.9694 103.663 23.554 98.1112 21.0925 91.8805C18.6309 85.6497 17.4001 79.0228 17.4001 71.9998C17.4001 64.3844 18.8136 57.2844 21.6406 50.6999C24.4675 44.1153 28.3713 38.3326 33.352 33.3518C38.3328 28.3711 44.1405 24.4673 50.7752 21.6404C57.4096 18.8134 64.4846 17.3999 72 17.3999C79.6154 17.3999 86.7154 18.8134 93.2999 21.6404C99.8845 24.4673 105.667 28.3711 110.648 33.3518C115.629 38.3326 119.532 44.1153 122.359 50.6999C125.186 57.2844 126.6 64.3844 126.6 71.9998V74.1229C125.323 73.4921 124.063 72.9959 122.821 72.6344C121.579 72.2729 120.258 71.8691 118.858 71.4229C118.689 58.5306 114.075 47.6037 105.017 38.6422C95.9597 29.6806 84.9539 25.1998 72 25.1998C66.3154 25.1998 60.9269 26.1902 55.8345 28.171C50.7422 30.1518 46.096 32.8691 41.896 36.3229L79.5576 73.9844C78.3192 74.6306 77.0712 75.2191 75.8135 75.7498C74.5559 76.2806 73.3386 76.9421 72.1617 77.7344L36.3231 41.8958C32.8693 45.9804 30.152 50.6266 28.1712 55.8343C26.1904 61.042 25.2 66.4305 25.2 71.9998C25.2 81.9691 28.0692 90.971 33.8077 99.0056C39.5462 107.04 47.1078 112.731 56.4924 116.077C57.8693 118.046 59.3212 119.825 60.8481 121.413C62.3749 123.001 64.0921 124.565 65.9998 126.103ZM102.6 118.8C108.4 118.8 113.9 117.6 119.1 115.2C124.3 112.8 128.5 109.2 131.7 104.4C128.5 99.5998 124.3 95.9998 119.1 93.5998C113.9 91.1998 108.4 89.9998 102.6 89.9998C96.8 89.9998 91.3 91.1998 86.1 93.5998C80.9 95.9998 76.7 99.5998 73.5 104.4C76.7 109.2 80.9 112.8 86.1 115.2C91.3 117.6 96.8 118.8 102.6 118.8ZM102.6 126.6C94.6231 126.6 87.1424 124.713 80.1579 120.94C73.1733 117.167 67.9694 111.654 64.5463 104.4C67.9694 97.146 73.1733 91.6326 80.1579 87.8596C87.1424 84.0865 94.6231 82.1999 102.6 82.1999C110.577 82.1999 118.058 84.0865 125.042 87.8596C132.027 91.6326 137.231 97.146 140.654 104.4C137.231 111.654 132.027 117.167 125.042 120.94C118.058 124.713 110.577 126.6 102.6 126.6ZM102.6 112.823C100.292 112.823 98.3116 111.996 96.6578 110.342C95.0039 108.688 94.1769 106.707 94.1769 104.4C94.1769 102.054 95.0039 100.063 96.6578 98.4287C98.3116 96.794 100.292 95.9767 102.6 95.9767C104.946 95.9767 106.936 96.794 108.571 98.4287C110.206 100.063 111.023 102.054 111.023 104.4C111.023 106.707 110.206 108.688 108.571 110.342C106.936 111.996 104.946 112.823 102.6 112.823Z" fill="#FFA562"/>
</g>
</svg>