<svg width="130" height="130" viewBox="0 0 130 130" fill="none" xmlns="http://www.w3.org/2000/svg">
<mask id="mask0_641_2892" style="mask-type:alpha" maskUnits="userSpaceOnUse" x="0" y="0" width="130" height="130">
<rect width="130" height="130" fill="#D9D9D9"/>
</mask>
<g mask="url(#mask0_641_2892)">
<path d="M38.1353 117.812C33.7534 117.812 29.8281 116.611 26.3594 114.208C22.8906 111.805 20.4063 108.718 18.9063 104.947C18.2883 103.183 18.3004 101.659 18.9427 100.374C19.5851 99.0898 20.8715 98.4475 22.8021 98.4475C23.6978 98.4475 24.5346 98.7495 25.3125 99.3537C26.0902 99.9578 26.7534 100.791 27.302 101.854C28.2395 104.006 29.6735 105.76 31.6041 107.114C33.5347 108.468 35.7117 109.145 38.1353 109.145C41.0659 109.145 43.7101 108.086 46.0678 105.968C48.4254 103.85 50.1806 100.944 51.3335 97.2494C51.8056 95.8189 52.382 94.4231 53.0626 93.062C53.7431 91.7009 54.6511 90.2895 55.7865 88.8276C56.9219 87.3658 58.323 85.7565 59.9897 83.9995C61.6564 82.2425 63.7016 80.2528 66.1252 78.0306L28.1145 40.0199C27.7673 40.5756 27.4808 41.1746 27.2552 41.817C27.0295 42.4594 26.8645 43.1278 26.7603 43.8223C26.4687 44.975 25.8888 45.949 25.0208 46.7442C24.1528 47.5392 23.1424 47.9368 21.9896 47.9368C20.7466 47.9368 19.7362 47.4802 18.9584 46.567C18.1806 45.6539 17.8646 44.6209 18.0105 43.4682C18.2605 41.5862 18.6719 39.8241 19.2449 38.1816C19.8178 36.5393 20.5141 34.8917 21.3335 33.2389L9.92724 21.8326C9.12169 21.0271 8.71025 20.0479 8.69291 18.8952C8.67549 17.7424 9.08693 16.7459 9.92724 15.9057C10.7675 15.0654 11.8005 14.6453 13.0261 14.6453C14.2518 14.6453 15.2848 15.0654 16.125 15.9057L115.156 115.072C115.962 115.878 116.373 116.857 116.391 118.01C116.408 119.163 115.997 120.159 115.156 120.999C114.316 121.84 113.306 122.268 112.125 122.286C110.945 122.303 109.934 121.892 109.094 121.051L72.375 84.2804C70.1667 86.3639 68.2795 88.2389 66.7135 89.9055C65.1475 91.5722 63.8298 93.1174 62.7603 94.5411C61.6909 95.9647 60.8298 97.338 60.177 98.6609C59.5242 99.9837 58.9269 101.315 58.3853 102.656C56.7603 107.315 54.1284 111.006 50.4895 113.729C46.8506 116.451 42.7326 117.812 38.1353 117.812ZM99.9269 83.968L93.8646 77.9057C96.9827 73.5793 99.3751 68.9682 101.042 64.0724C102.708 59.1765 103.542 54.1591 103.542 49.0203C103.542 43.2494 102.582 37.6956 100.662 32.3587C98.7414 27.0219 95.9966 22.1174 92.4271 17.6452C91.6771 16.6938 91.3386 15.6504 91.4115 14.515C91.4845 13.3797 91.941 12.437 92.7812 11.687C93.7673 10.8814 94.8194 10.4839 95.9374 10.4943C97.0555 10.5047 97.9722 10.9057 98.6874 11.6974C103.111 17.0099 106.47 22.8328 108.766 29.1661C111.061 35.4995 112.208 42.1175 112.208 49.0203C112.208 55.291 111.151 61.3726 109.036 67.2651C106.922 73.1574 103.885 78.7251 99.9269 83.968ZM85.3541 69.3952L78.8333 62.8745C79.9653 60.5897 80.8004 58.2998 81.3385 56.0046C81.8768 53.7095 82.1459 51.3814 82.1459 49.0203C82.1459 41.3605 79.4115 34.7963 73.9428 29.3274C68.474 23.8587 61.9097 21.1243 54.2499 21.1243C51.8749 21.1243 49.5311 21.4299 47.2187 22.0411C44.9061 22.6521 42.7325 23.5063 40.6978 24.6035L34.2812 18.187C37.3021 16.2147 40.4809 14.7668 43.8177 13.8432C47.1545 12.9197 50.632 12.4579 54.2499 12.4579C64.4652 12.4579 73.1128 15.9978 80.1926 23.0777C87.2725 30.1574 90.8124 38.805 90.8124 49.0203C90.8124 52.548 90.3419 56.0255 89.401 59.4525C88.46 62.8796 87.111 66.1938 85.3541 69.3952ZM66.7707 50.8118L52.3751 36.2808C52.7223 36.2599 53.0209 36.2269 53.2709 36.1818C53.5208 36.1367 53.8021 36.1141 54.1145 36.1141C57.6284 36.1141 60.6353 37.3641 63.1353 39.8641C65.6353 42.364 66.8852 45.371 66.8852 48.8848C66.8852 49.1973 66.8714 49.5098 66.8437 49.8223C66.8159 50.1348 66.7915 50.4646 66.7707 50.8118ZM54.1145 61.6556C50.6007 61.6556 47.5938 60.4143 45.0937 57.9316C42.5938 55.449 41.3438 52.4334 41.3438 48.8848C41.3438 47.7599 41.4757 46.6714 41.7396 45.6193C42.0035 44.5672 42.3993 43.5967 42.9271 42.7078L60.2395 60.1556C59.2604 60.6278 58.276 60.9959 57.2864 61.2598C56.2968 61.5236 55.2395 61.6556 54.1145 61.6556Z" fill="#FFA562"/>
</g>
</svg>
