<svg width="144" height="144" viewBox="0 0 144 144" fill="none" xmlns="http://www.w3.org/2000/svg">
<mask id="mask0_641_2898" style="mask-type:alpha" maskUnits="userSpaceOnUse" x="0" y="0" width="144" height="144">
<rect width="144" height="144" fill="#D9D9D9"/>
</mask>
<g mask="url(#mask0_641_2898)">
<path d="M80.9422 32.0771C77.8961 32.0771 75.2885 30.9925 73.1193 28.8233C70.9501 26.654 69.8655 24.0463 69.8655 21.0002C69.8655 17.9541 70.9501 15.3464 73.1193 13.1771C75.2885 11.0079 77.8961 9.92334 80.9422 9.92334C83.9884 9.92334 86.5961 11.0079 88.7653 13.1771C90.9345 15.3464 92.0191 17.9541 92.0191 21.0002C92.0191 24.0463 90.9345 26.654 88.7653 28.8233C86.5961 30.9925 83.9884 32.0771 80.9422 32.0771ZM83.9403 137.077C82.6647 137.077 81.5461 136.596 80.5846 135.633C79.6231 134.671 79.1424 133.552 79.1424 132.277V105.981C79.1424 105.712 79.0943 105.471 78.9981 105.26C78.902 105.048 78.7578 104.846 78.5655 104.654L65.6191 88.7768L63.1267 107.827C62.9882 108.835 62.7382 109.825 62.3767 110.797C62.0151 111.77 61.4728 112.684 60.7498 113.538L46.038 132.473C45.1688 133.527 44.0957 134.15 42.8188 134.342C41.5419 134.535 40.3766 134.206 39.3228 133.356C38.269 132.506 37.6113 131.433 37.3498 130.137C37.0882 128.841 37.392 127.666 38.2612 126.612L52.2807 108.069C52.3961 107.915 52.4826 107.762 52.5403 107.608C52.598 107.454 52.6461 107.281 52.6846 107.089L54.0924 79.3849C54.3847 75.6157 54.9481 71.6195 55.7827 67.3963C56.6174 63.1732 57.6886 58.8731 58.9963 54.4961L48.196 59.7461C47.8499 59.9 47.5711 60.1212 47.3595 60.4096C47.148 60.6981 47.0422 61.0347 47.0422 61.4194V75.3923C47.0422 76.6673 46.5608 77.7861 45.5979 78.7486C44.635 79.7111 43.5158 80.1923 42.2403 80.1923C40.9647 80.1923 39.8461 79.7111 38.8846 78.7486C37.9231 77.7861 37.4424 76.6673 37.4424 75.3923V61.3616C37.4424 59.2194 37.9828 57.2396 39.0636 55.4222C40.1443 53.6049 41.6462 52.2232 43.5693 51.2771L62.169 41.6426C65.046 40.1196 67.0729 39.0331 68.2498 38.3831C69.4267 37.733 70.669 37.1964 71.9767 36.7733C74.169 36.5425 76.2311 37.0713 78.163 38.3597C80.0948 39.648 81.552 41.2846 82.5345 43.2695L87.646 53.0887C89.8152 57.2657 92.9825 60.6426 97.1479 63.2195C101.313 65.7964 105.796 67.0849 110.596 67.0849C112.968 67.0849 114.984 67.915 116.644 69.5753C118.304 71.2355 119.134 73.2515 119.134 75.6233V134.273C119.134 135.081 118.869 135.75 118.338 136.281C117.808 136.812 117.138 137.077 116.331 137.077C115.523 137.077 114.854 136.812 114.323 136.281C113.792 135.75 113.527 135.081 113.527 134.273V75.6233C113.527 74.7618 113.254 74.058 112.708 73.5118C112.162 72.9657 111.458 72.6926 110.596 72.6926C109.735 72.6926 109.031 72.9657 108.484 73.5118C107.938 74.058 107.665 74.7618 107.665 75.6233V77.908C107.665 78.7156 107.4 79.3848 106.869 79.9156C106.338 80.4464 105.669 80.7118 104.862 80.7118C104.054 80.7118 103.385 80.4489 102.854 79.9231C102.323 79.3972 102.058 78.7337 102.058 77.9326V77.4811C102.058 77.1733 102.135 76.8463 102.288 76.5002C102.442 76.154 102.615 75.8848 102.808 75.6925C98.0615 74.4771 93.7634 72.5155 89.9134 69.8078C86.0634 67.1 82.823 63.5692 80.1922 59.2153C78.8768 63.1385 77.8691 67.0405 77.1691 70.9213C76.4691 74.8021 76.1422 78.5617 76.1883 82.2002L86.1114 94.2578C86.9883 95.2809 87.646 96.386 88.0845 97.5731C88.523 98.7603 88.7422 100.048 88.7422 101.435V132.277C88.7422 133.552 88.2608 134.671 87.2979 135.633C86.335 136.596 85.2158 137.077 83.9403 137.077Z" fill="#FFA562"/>
</g>
</svg>
