<svg width="144" height="144" viewBox="0 0 144 144" fill="none" xmlns="http://www.w3.org/2000/svg">
<mask id="mask0_641_2889" style="mask-type:alpha" maskUnits="userSpaceOnUse" x="0" y="0" width="144" height="144">
<rect width="144" height="144" fill="#D9D9D9"/>
</mask>
<g mask="url(#mask0_641_2889)">
<path d="M72.0578 124.984C66.7744 124.984 61.7066 124.246 56.8543 122.769C52.0021 121.292 47.3466 119.111 42.8878 116.225C41.6346 115.288 40.6734 114.127 40.0042 112.744C39.3349 111.361 39.0002 109.852 39.0002 108.219V75.604C39.0002 74.0398 39.3576 72.5555 40.0724 71.1511C40.7872 69.7468 41.7988 68.5699 43.1072 67.6204C47.5076 64.7709 52.1194 62.6193 56.9425 61.1655C61.7655 59.7116 66.7847 58.9846 72.0001 58.9846C77.2155 58.9846 82.2347 59.7116 87.0577 61.1655C91.8808 62.6193 96.4925 64.7705 100.893 67.6192C102.193 68.5678 103.203 69.7437 103.922 71.1469C104.641 72.5501 105 74.0844 105 75.7498V108.377C105 110.149 104.58 111.773 103.74 113.25C102.901 114.727 101.737 115.911 100.25 116.804C99.0627 117.496 97.7518 118.219 96.3172 118.973C94.8826 119.727 93.2614 120.465 91.4537 121.188C91.6537 119.926 91.7537 119.032 91.7537 118.506C91.7537 112.944 89.809 108.218 85.9196 104.328C82.0301 100.437 77.3133 98.4921 71.7692 98.4921C67.6879 98.4921 63.9945 99.6209 60.689 101.879C57.3836 104.136 54.9579 107.181 53.4118 111.011C56.3425 112.511 59.3345 113.617 62.3878 114.329C65.4411 115.04 68.6435 115.396 71.995 115.396C73.5688 115.396 75.2167 115.296 76.9388 115.096C78.6609 114.896 80.4608 114.546 82.3385 114.046V123.784C80.2154 124.223 78.3423 124.532 76.7192 124.713C75.0962 124.894 73.5424 124.984 72.0578 124.984ZM84.9991 95.1229C87.7407 95.1229 90.0749 94.1649 92.0018 92.2489C93.9287 90.3328 94.8922 88.004 94.8922 85.2624C94.8922 82.5208 93.9302 80.1865 92.0062 78.2596C90.0822 76.3326 87.7437 75.3691 84.9908 75.3691C82.2379 75.3691 79.9077 76.3312 78.0001 78.2553C76.0924 80.1793 75.1385 82.5177 75.1385 85.2706C75.1385 88.0234 76.0965 90.3537 78.0125 92.2614C79.9285 94.1691 82.2574 95.1229 84.9991 95.1229ZM72.0001 52.2463C76.6155 52.2463 80.5385 50.6213 83.7692 47.3713C87 44.1213 88.6154 40.2003 88.6154 35.6082C88.6154 31.008 86.9992 27.0925 83.7668 23.8618C80.5345 20.631 76.6096 19.0156 71.992 19.0156C67.382 19.0156 63.4616 20.631 60.2309 23.8618C57.0001 27.0925 55.3847 31.0156 55.3847 35.631C55.3847 40.2079 57.002 44.1213 60.2366 47.3713C63.4712 50.6213 67.3924 52.2463 72.0001 52.2463Z" fill="#FFA562"/>
</g>
</svg>
