<svg width="144" height="144" viewBox="0 0 144 144" fill="none" xmlns="http://www.w3.org/2000/svg">
<mask id="mask0_641_2901" style="mask-type:alpha" maskUnits="userSpaceOnUse" x="0" y="0" width="144" height="144">
<rect width="144" height="144" fill="#D9D9D9"/>
</mask>
<g mask="url(#mask0_641_2901)">
<path d="M104.85 38.0771C101.822 38.0771 99.2438 37.013 97.1155 34.8847C94.9872 32.7564 93.9231 30.1782 93.9231 27.1502C93.9231 24.0397 94.9872 21.391 97.1155 19.204C99.2438 17.0169 101.822 15.9233 104.85 15.9233C107.96 15.9233 110.609 17.0169 112.796 19.204C114.983 21.391 116.077 24.0397 116.077 27.1502C116.077 30.1782 114.983 32.7564 112.796 34.8847C110.609 37.013 107.96 38.0771 104.85 38.0771ZM59.8762 130.616C51.9936 130.616 45.2744 127.816 39.7186 122.216C34.1627 116.616 31.3848 109.862 31.3848 101.956C31.3848 94.0501 34.1502 87.2866 39.681 81.6659C45.2117 76.0452 51.8155 73.1349 59.4924 72.9349V82.5347C54.4597 82.7347 50.1169 84.6994 46.464 88.4287C42.8111 92.1579 40.9846 96.6863 40.9846 102.014C40.9846 107.3 42.8312 111.788 46.5244 115.479C50.2177 119.17 54.7024 121.016 59.9784 121.016C65.2545 121.016 69.6964 119.109 73.3041 115.295C76.9118 111.48 78.7656 106.999 78.8656 101.85H88.4655C88.4655 109.727 85.6609 116.491 80.0517 122.141C74.4425 127.791 67.7173 130.616 59.8762 130.616ZM111.748 125.7C110.472 125.7 109.354 125.219 108.392 124.256C107.431 123.294 106.95 122.19 106.95 120.944V97.3504C106.95 96.8888 106.815 96.5234 106.546 96.2542C106.277 95.9849 105.912 95.8502 105.45 95.8502H77.5501C73.1501 95.8502 69.8001 93.9752 67.5001 90.2252C65.2001 86.4752 64.9501 82.5502 66.7501 78.4502L78.5541 52.2116H64.3039L61.8808 58.408C61.3925 59.5002 60.5435 60.3444 59.3338 60.9406C58.1241 61.5367 56.9424 61.6232 55.7886 61.2002C54.4832 60.8249 53.5472 60.0369 52.9807 58.8361C52.4142 57.6353 52.3848 56.3657 52.8925 55.0273L55.1425 48.7847C55.9272 46.7155 57.203 45.0925 58.9699 43.9156C60.7367 42.7387 62.7417 42.1502 64.9848 42.1502H93.0195C97.1421 42.1502 100.3 43.7828 102.494 47.048C104.688 50.3133 104.904 53.9538 103.142 57.9694L91.7188 83.5621H105.935C108.854 83.5621 111.353 84.6015 113.432 86.6803C115.511 88.7591 116.55 91.2581 116.55 94.1773V120.874C116.55 122.167 116.069 123.294 115.106 124.256C114.143 125.219 113.024 125.7 111.748 125.7Z" fill="#FFA562"/>
</g>
</svg>
