<svg width="24" height="24" viewBox="0 0 24 24" fill="none" xmlns="http://www.w3.org/2000/svg">
<g id="arrow_back_ios">
<mask id="mask0_490_3166" style="mask-type:alpha" maskUnits="userSpaceOnUse" x="0" y="0" width="24" height="24">
<rect id="Bounding box" width="24" height="24" fill="#D9D9D9"/>
</mask>
<g mask="url(#mask0_490_3166)">
<path id="arrow_back_ios_2" d="M2.81906 12.0001L10.5345 19.7155C10.6819 19.8629 10.7546 20.0392 10.7527 20.2443C10.7508 20.4494 10.6761 20.6257 10.5287 20.7732C10.3812 20.9206 10.205 20.9943 9.99983 20.9943C9.7947 20.9943 9.61842 20.9206 9.47098 20.7732L1.82868 13.1366C1.66711 12.9751 1.54916 12.795 1.47483 12.5962C1.40046 12.3975 1.36328 12.1988 1.36328 12.0001C1.36328 11.8014 1.40046 11.6027 1.47483 11.4039C1.54918 11.2052 1.66713 11.0251 1.82868 10.8635L9.47098 3.22124C9.61842 3.07381 9.79566 3.00105 10.0027 3.00297C10.2098 3.0049 10.387 3.07958 10.5345 3.22702C10.6819 3.37445 10.7556 3.55073 10.7556 3.75587C10.7556 3.961 10.6819 4.13728 10.5345 4.28472L2.81906 12.0001Z" fill="#1C1B1F"/>
</g>
</g>
</svg>
