<svg width="71" height="16" viewBox="0 0 71 16" fill="none" xmlns="http://www.w3.org/2000/svg">
<rect width="71" height="16" rx="4" fill="#DFEDDD"/>
<path d="M9.55469 3.21094C11.7695 3.22266 13.3633 4.30078 13.3633 5.94141C13.3633 7.49414 11.9805 8.52539 10 8.64844V10.8398H14.3477V11.6133H4.80859V10.8398H9.09766V8.64844C7.12305 8.51953 5.74609 7.48828 5.74609 5.94141C5.74609 4.30078 7.33984 3.22266 9.55469 3.21094ZM9.55469 3.97266C7.86719 3.97266 6.63672 4.76953 6.63672 5.94141C6.63672 7.14844 7.86719 7.92188 9.55469 7.93359C11.2422 7.92188 12.4727 7.14844 12.4727 5.94141C12.4727 4.76953 11.2422 3.97266 9.55469 3.97266ZM23.7695 2.53125V12.9727H22.8438V2.53125H23.7695ZM20.8164 3.52734V4.30078H16.7852V9.58594C18.8125 9.58594 20.1484 9.52148 21.707 9.24609L21.8008 10.0195C20.1836 10.3125 18.8125 10.3711 16.7031 10.3828H15.8594V3.52734H20.8164ZM30.2969 3.21094C32.5117 3.22266 34.1055 4.30078 34.1055 5.94141C34.1055 7.49414 32.7227 8.52539 30.7422 8.64844V10.8398H35.0898V11.6133H25.5508V10.8398H29.8398V8.64844C27.8652 8.51953 26.4883 7.48828 26.4883 5.94141C26.4883 4.30078 28.082 3.22266 30.2969 3.21094ZM30.2969 3.97266C28.6094 3.97266 27.3789 4.76953 27.3789 5.94141C27.3789 7.14844 28.6094 7.92188 30.2969 7.93359C31.9844 7.92188 33.2148 7.14844 33.2148 5.94141C33.2148 4.76953 31.9844 3.97266 30.2969 3.97266ZM43.9844 2.53125V6.77344H45.6719V7.54688H43.9844V12.9492H43.0703V2.53125H43.9844ZM41.2891 3.65625C41.2891 6.60938 39.9062 9.29297 36.5078 10.9688L35.9922 10.2422C38.6875 8.90039 40.1523 6.89648 40.3633 4.42969H36.4727V3.65625H41.2891ZM54.8828 2.53125V12.9727H53.957V2.53125H54.8828ZM49.3398 3.33984C50.8867 3.35156 52 4.75781 52 6.97266C52 9.1875 50.8867 10.5938 49.3398 10.5938C47.7812 10.5938 46.6797 9.1875 46.6797 6.97266C46.6797 4.75781 47.7812 3.35156 49.3398 3.33984ZM49.3398 4.16016C48.2969 4.17188 47.5703 5.27344 47.5703 6.97266C47.5703 8.67188 48.2969 9.77344 49.3398 9.77344C50.3828 9.77344 51.1094 8.67188 51.1094 6.97266C51.1094 5.27344 50.3828 4.17188 49.3398 4.16016ZM65.0781 7.54688V8.30859H57.8828V3.50391H64.9727V4.26562H58.7969V7.54688H65.0781ZM66.2031 10.7578V11.5312H56.6641V10.7578H66.2031Z" fill="#4B4B4B"/>
</svg>
