<svg width="60" height="16" viewBox="0 0 60 16" fill="none" xmlns="http://www.w3.org/2000/svg">
<rect width="60" height="16" rx="4" fill="#ECE0DB"/>
<path d="M14.0215 8.47266V9.23438H11.502V12.9492H10.5762V9.23438H7.9043V12.9492H6.95508V9.23438H4.48242V8.47266H14.0215ZM9.22852 2.95312C11.4199 2.95312 12.8965 3.83203 12.8965 5.22656C12.8965 6.60938 11.4199 7.48828 9.22852 7.47656C7.03711 7.48828 5.56055 6.60938 5.56055 5.22656C5.56055 3.83203 7.03711 2.95312 9.22852 2.95312ZM9.22852 3.70312C7.59961 3.70312 6.49805 4.30078 6.50977 5.22656C6.49805 6.15234 7.59961 6.73828 9.22852 6.73828C10.8457 6.73828 11.959 6.15234 11.959 5.22656C11.959 4.30078 10.8457 3.70312 9.22852 3.70312ZM17.6543 3.33984C19.1895 3.35156 20.2793 4.75781 20.291 6.97266C20.2793 9.1875 19.1895 10.5938 17.6543 10.5938C16.1074 10.5938 15.0293 9.1875 15.0293 6.97266C15.0293 4.75781 16.1074 3.35156 17.6543 3.33984ZM17.6543 4.16016C16.623 4.17188 15.8965 5.27344 15.8965 6.97266C15.8965 8.67188 16.623 9.77344 17.6543 9.77344C18.6973 9.77344 19.4004 8.67188 19.4004 6.97266C19.4004 5.27344 18.6973 4.17188 17.6543 4.16016ZM22.9277 2.53125V6.69141H24.6738V7.48828H22.9277V12.9492H22.0137V2.53125H22.9277ZM34.7285 7.6875V8.44922H25.2363V7.6875H27.5918V6.22266C26.7598 5.90039 26.291 5.36719 26.291 4.66406C26.291 3.43359 27.6973 2.73047 29.9824 2.73047C32.2441 2.73047 33.6621 3.43359 33.6621 4.66406C33.6621 5.36133 33.1992 5.89453 32.373 6.21094V7.6875H34.7285ZM29.9824 9.24609C32.2207 9.24609 33.5566 9.89062 33.5684 11.0859C33.5566 12.2695 32.2207 12.9258 29.9824 12.9258C27.7207 12.9258 26.3848 12.2695 26.3848 11.0859C26.3848 9.89062 27.7207 9.24609 29.9824 9.24609ZM29.9824 9.94922C28.3066 9.96094 27.3105 10.3711 27.3223 11.0859C27.3105 11.7891 28.3066 12.2109 29.9824 12.2109C31.6348 12.2109 32.6426 11.7891 32.6426 11.0859C32.6426 10.3711 31.6348 9.96094 29.9824 9.94922ZM29.9824 3.45703C28.2832 3.45703 27.2285 3.91406 27.2402 4.66406C27.2285 5.42578 28.2832 5.87109 29.9824 5.87109C31.6699 5.87109 32.7246 5.42578 32.7246 4.66406C32.7246 3.91406 31.6699 3.45703 29.9824 3.45703ZM28.5059 7.6875H31.459V6.46875C31.0195 6.54492 30.5273 6.58594 29.9824 6.58594C29.4375 6.58594 28.9453 6.54492 28.5059 6.46875V7.6875ZM39.0176 3.29297C40.6582 3.29297 41.8184 4.28906 41.8184 5.74219C41.8184 7.19531 40.6582 8.19141 39.0176 8.19141C37.377 8.19141 36.1934 7.19531 36.2051 5.74219C36.1934 4.28906 37.377 3.29297 39.0176 3.29297ZM39.0176 4.10156C37.9043 4.10156 37.0957 4.76953 37.1074 5.74219C37.0957 6.71484 37.9043 7.38281 39.0176 7.38281C40.1191 7.38281 40.916 6.71484 40.916 5.74219C40.916 4.76953 40.1191 4.10156 39.0176 4.10156ZM44.1504 2.53125V12.9727H43.2363V2.53125H44.1504ZM35.666 9.89062C37.5879 9.89062 40.2363 9.87891 42.5449 9.53906L42.6152 10.2188C40.2363 10.6641 37.6699 10.6758 35.7949 10.6758L35.666 9.89062ZM49.5059 5.73047C49.4941 7.40625 50.7012 9.24609 52.2129 9.96094L51.6855 10.6875C50.5137 10.1191 49.5234 8.87695 49.0605 7.46484C48.5801 9 47.5312 10.3477 46.3652 10.9453L45.8027 10.2188C47.3027 9.49219 48.5918 7.51172 48.6035 5.73047V4.37109H46.1777V3.60938H51.8496V4.37109H49.5059V5.73047ZM54.041 2.53125V6.75H55.7871V7.53516H54.041V12.9492H53.127V2.53125H54.041Z" fill="#4B4B4B"/>
</svg>
