<svg width="50" height="16" viewBox="0 0 50 16" fill="none" xmlns="http://www.w3.org/2000/svg">
<rect width="50" height="16" rx="4" fill="#FAE3DE"/>
<path d="M13.3164 2.53125V8.63672H12.3906V5.91797H10.2812V5.14453H12.3906V2.53125H13.3164ZM13.3164 9.15234V12.8086H6.50781V9.15234H13.3164ZM7.42188 9.89062V12.0586H12.4141V9.89062H7.42188ZM8.30078 4.38281C8.30078 5.73047 9.34375 7.03125 10.8672 7.57031L10.3867 8.29688C9.20898 7.875 8.30078 6.99609 7.85547 5.91797C7.4043 7.11914 6.44336 8.08008 5.20703 8.53125L4.72656 7.80469C6.26172 7.25391 7.375 5.87109 7.375 4.38281V3.97266H5.01953V3.21094H10.6328V3.97266H8.30078V4.38281ZM18.5781 5.73047C18.5664 7.40625 19.7734 9.24609 21.2852 9.96094L20.7578 10.6875C19.5859 10.1191 18.5957 8.87695 18.1328 7.46484C17.6523 9 16.6035 10.3477 15.4375 10.9453L14.875 10.2188C16.375 9.49219 17.6641 7.51172 17.6758 5.73047V4.37109H15.25V3.60938H20.9219V4.37109H18.5781V5.73047ZM23.1133 2.53125V6.75H24.8594V7.53516H23.1133V12.9492H22.1992V2.53125H23.1133ZM27.6016 2.71875V3.72656H32.7578V2.71875H33.6719V6.15234H26.6875V2.71875H27.6016ZM27.6016 5.44922H32.7578V4.42969H27.6016V5.44922ZM34.9141 7.05469V7.79297H25.4219V7.05469H34.9141ZM33.6953 8.75391V11.0625H27.5078V12.1055H34.0117V12.832H26.5938V10.3828H32.793V9.45703H26.5703V8.75391H33.6953ZM45.3203 8.27344V9.03516H35.7812V8.27344H40.0938V7.17188H37.0234V4.62891H43.1641V3.55078H36.9883V2.80078H44.0898V5.32031H37.9375V6.43359H44.3125V7.17188H40.9961V8.27344H45.3203ZM44.1484 9.83203V12.8555H43.2227V10.582H36.8477V9.83203H44.1484Z" fill="#4B4B4B"/>
</svg>
