<svg width="60" height="16" viewBox="0 0 60 16" fill="none" xmlns="http://www.w3.org/2000/svg">
<rect width="60" height="16" rx="4" fill="#D7E5EE"/>
<path d="M14.0332 10.8516V11.6133H4.49414V10.8516H8.7832V8.60156H5.61914V3.26953H6.54492V5.15625H11.959V3.26953H12.8613V8.60156H9.68555V10.8516H14.0332ZM6.54492 7.85156H11.959V5.90625H6.54492V7.85156ZM24.4043 10.8398V11.6133H14.8652V10.8398H19.166V8.30859H20.0918V10.8398H24.4043ZM20.0918 4.51172C20.0918 6.17578 22.1543 7.60547 23.9473 7.89844L23.5723 8.625C21.9785 8.31445 20.2969 7.30078 19.6348 5.84766C18.9609 7.30664 17.2852 8.34375 15.7207 8.67188L15.334 7.93359C17.0918 7.62891 19.1426 6.17578 19.1426 4.51172V4.25391H15.6504V3.48047H23.584V4.25391H20.0918V4.51172ZM33.873 2.54297V10.3125H32.9473V7.79297H30.1465V7.03125H32.9473V5.44922H30.2871C29.5547 7.0957 27.9551 8.34961 25.8223 9.03516L25.4121 8.29688C27.8496 7.49414 29.5254 5.99414 29.7246 4.11328H25.9277V3.35156H30.7324C30.7324 3.82031 30.668 4.27148 30.5566 4.69922H32.9473V2.54297H33.873ZM34.1426 11.9531V12.7266H27.2402V9.53906H28.1777V11.9531H34.1426ZM45.1113 7.6875V8.42578H35.6074V7.6875H39.9082V6.46875H36.8145V3.02344H43.9277V3.76172H37.7168V5.71875H43.998V6.46875H40.7988V7.6875H45.1113ZM40.3535 9.1875C42.5918 9.1875 43.9277 9.86719 43.9395 11.0625C43.9277 12.2695 42.5918 12.9375 40.3535 12.9492C38.1035 12.9375 36.7559 12.2695 36.7559 11.0625C36.7559 9.86719 38.1035 9.1875 40.3535 9.1875ZM40.3535 9.91406C38.6777 9.91406 37.6816 10.3477 37.6934 11.0625C37.6816 11.7891 38.6777 12.2109 40.3535 12.2109C42.0059 12.2109 43.0137 11.7891 43.0137 11.0625C43.0137 10.3477 42.0059 9.91406 40.3535 9.91406ZM54.123 2.54297V5.69531H55.6934V6.46875H54.123V10.1953H53.209V2.54297H54.123ZM54.6035 11.9531V12.7266H47.6074V9.44531H48.5098V11.9531H54.6035ZM47.3262 3.29297V5.05078H50.3613V3.29297H51.2754V8.4375H46.4238V3.29297H47.3262ZM47.3262 7.6875H50.3613V5.77734H47.3262V7.6875Z" fill="#4B4B4B"/>
</svg>
