<svg width="40" height="16" viewBox="0 0 40 16" fill="none" xmlns="http://www.w3.org/2000/svg">
<rect width="40" height="16" rx="4" fill="#F5DFCC"/>
<path d="M10.0918 3.50391C10.0918 4.96875 12.0137 6.24609 13.8887 6.50391L13.5137 7.25391C11.8965 6.98438 10.2969 6.08789 9.62305 4.80469C8.95508 6.09375 7.34961 6.98438 5.73242 7.25391L5.35742 6.50391C7.23242 6.24609 9.14258 4.99219 9.14258 3.50391V2.90625H10.0918V3.50391ZM14.3574 8.40234V9.17578H10.0449V12.9492H9.14258V9.17578H4.86523V8.40234H14.3574ZM24.7637 8.47266V9.23438H22.2441V12.9492H21.3184V9.23438H18.6465V12.9492H17.6973V9.23438H15.2246V8.47266H24.7637ZM19.9707 2.95312C22.1621 2.95312 23.6387 3.83203 23.6387 5.22656C23.6387 6.60938 22.1621 7.48828 19.9707 7.47656C17.7793 7.48828 16.3027 6.60938 16.3027 5.22656C16.3027 3.83203 17.7793 2.95312 19.9707 2.95312ZM19.9707 3.70312C18.3418 3.70312 17.2402 4.30078 17.252 5.22656C17.2402 6.15234 18.3418 6.73828 19.9707 6.73828C21.5879 6.73828 22.7012 6.15234 22.7012 5.22656C22.7012 4.30078 21.5879 3.70312 19.9707 3.70312ZM34.1973 2.53125V7.93359H33.2949V2.53125H34.1973ZM34.209 8.46094V10.957H28.3613V12.082H34.584V12.832H27.459V10.2422H33.2949V9.19922H27.4355V8.46094H34.209ZM29.2988 3.63281C29.2871 5.10938 30.4121 6.41016 31.959 6.91406L31.502 7.62891C30.2832 7.21289 29.3105 6.33984 28.8418 5.21484C28.373 6.42773 27.3945 7.38281 26.1582 7.82812L25.6777 7.10156C27.248 6.55078 28.3613 5.16797 28.3613 3.63281V2.83594H29.2988V3.63281Z" fill="#4B4B4B"/>
</svg>
