<svg width="71" height="16" viewBox="0 0 71 16" fill="none" xmlns="http://www.w3.org/2000/svg">
<rect width="71" height="16" rx="4" fill="#FAEDCC"/>
<path d="M13.4453 2.54297V10.1836H12.5195V6.1875H10.375V5.42578H12.5195V2.54297H13.4453ZM13.7383 11.9531V12.7266H6.75391V9.49219H7.67969V11.9531H13.7383ZM8.42969 4.6875C8.42969 6.03516 9.47266 7.34766 10.9961 7.86328L10.5156 8.60156C9.33789 8.17969 8.42969 7.30078 7.98438 6.22266C7.5332 7.42383 6.57227 8.38477 5.33594 8.84766L4.85547 8.09766C6.39062 7.55859 7.50391 6.1875 7.50391 4.6875V4.14844H5.14844V3.38672H10.7617V4.14844H8.42969V4.6875ZM24.6719 7.6875V8.44922H15.1797V7.6875H17.5352V6.22266C16.7031 5.90039 16.2344 5.36719 16.2344 4.66406C16.2344 3.43359 17.6406 2.73047 19.9258 2.73047C22.1875 2.73047 23.6055 3.43359 23.6055 4.66406C23.6055 5.36133 23.1426 5.89453 22.3164 6.21094V7.6875H24.6719ZM19.9258 9.24609C22.1641 9.24609 23.5 9.89062 23.5117 11.0859C23.5 12.2695 22.1641 12.9258 19.9258 12.9258C17.6641 12.9258 16.3281 12.2695 16.3281 11.0859C16.3281 9.89062 17.6641 9.24609 19.9258 9.24609ZM19.9258 9.94922C18.25 9.96094 17.2539 10.3711 17.2656 11.0859C17.2539 11.7891 18.25 12.2109 19.9258 12.2109C21.5781 12.2109 22.5859 11.7891 22.5859 11.0859C22.5859 10.3711 21.5781 9.96094 19.9258 9.94922ZM19.9258 3.45703C18.2266 3.45703 17.1719 3.91406 17.1836 4.66406C17.1719 5.42578 18.2266 5.87109 19.9258 5.87109C21.6133 5.87109 22.668 5.42578 22.668 4.66406C22.668 3.91406 21.6133 3.45703 19.9258 3.45703ZM18.4492 7.6875H21.4023V6.46875C20.9629 6.54492 20.4707 6.58594 19.9258 6.58594C19.3809 6.58594 18.8887 6.54492 18.4492 6.46875V7.6875ZM30.8125 4.00781C30.8008 5.40234 32.6641 6.58594 34.4805 6.85547L34.1406 7.58203C32.5117 7.30664 30.9297 6.43945 30.2969 5.17969C29.6641 6.43945 28.0762 7.30664 26.4766 7.58203L26.1133 6.85547C27.918 6.58594 29.7812 5.40234 29.7812 4.00781V3.9375H26.4414V3.1875H34.1406V3.9375H30.8125V4.00781ZM35.043 8.47266V9.23438H30.7305V12.9492H29.8281V9.23438H25.5508V8.47266H35.043ZM39.3906 5.92969C39.3906 7.59375 40.4805 9.30469 41.9922 10.0312L41.4531 10.7461C40.3047 10.1836 39.3965 9.04688 38.9688 7.69922C38.5117 9.14648 37.5449 10.3594 36.3555 10.9336L35.8281 10.2188C37.3516 9.50391 38.4883 7.72266 38.5 5.92969V5.09766H36.1094V4.34766H38.4883V2.73047H39.4141V4.34766H41.7578V5.09766H39.3906V5.92969ZM43.9844 2.53125V6.80859H45.7305V7.59375H43.9844V12.9492H43.0703V2.53125H43.9844ZM54.5312 3.21094V4.125C54.5312 5.11523 54.5312 6.1875 54.2383 7.6875H55.7852V8.44922H51.4844V12.9727H50.5586V8.44922H46.293V7.6875H53.3008C53.6172 6.1875 53.6172 5.0918 53.6172 4.125V3.97266H47.4883V3.21094H54.5312ZM65.3008 9.24609V12.9492H64.375V9.98438H58.293V9.24609H65.3008ZM65.3008 2.53125V8.67188H64.375V7.17188H61.6914C61.2051 7.76367 60.4375 8.11523 59.5352 8.10938C57.9766 8.12109 56.8281 7.08984 56.8281 5.61328C56.8281 4.16016 57.9766 3.12891 59.5352 3.12891C60.4316 3.12891 61.1992 3.48047 61.6914 4.06641H64.375V2.53125H65.3008ZM59.5352 3.91406C58.4688 3.91406 57.707 4.62891 57.707 5.61328C57.707 6.63281 58.4688 7.33594 59.5352 7.33594C60.5547 7.33594 61.3398 6.63281 61.3398 5.61328C61.3398 4.62891 60.5547 3.91406 59.5352 3.91406ZM62.1016 6.41016H64.375V4.82812H62.1016C62.1836 5.07422 62.2305 5.33203 62.2305 5.61328C62.2305 5.89453 62.1836 6.16406 62.1016 6.41016Z" fill="#4B4B4B"/>
</svg>
