<svg width="22" height="22" viewBox="0 0 22 22" fill="none" xmlns="http://www.w3.org/2000/svg">
<g id="Group 2096">
<circle id="Ellipse 307" cx="11" cy="11" r="11" fill="#FF7F1E"/>
<g id="check_small">
<mask id="mask0_532_546" style="mask-type:alpha" maskUnits="userSpaceOnUse" x="2" y="2" width="18" height="18">
<rect id="Bounding box" x="2.75" y="2.75" width="16.5" height="16.5" fill="#D9D9D9"/>
</mask>
<g mask="url(#mask0_532_546)">
<path id="check_small_2" d="M9.62505 12.1L13.6813 8.0438C13.8073 7.91776 13.9678 7.85474 14.1625 7.85474C14.3573 7.85474 14.5178 7.91776 14.6438 8.0438C14.7698 8.16984 14.8329 8.33026 14.8329 8.52505C14.8329 8.71984 14.7698 8.88026 14.6438 9.0063L10.1063 13.5438C9.9688 13.6813 9.80838 13.75 9.62505 13.75C9.44172 13.75 9.2813 13.6813 9.1438 13.5438L7.3563 11.7563C7.23026 11.6303 7.16724 11.4698 7.16724 11.275C7.16724 11.0803 7.23026 10.9198 7.3563 10.7938C7.48234 10.6678 7.64276 10.6047 7.83755 10.6047C8.03234 10.6047 8.19276 10.6678 8.3188 10.7938L9.62505 12.1Z" fill="white"/>
</g>
</g>
</g>
</svg>
