<svg width="50" height="16" viewBox="0 0 50 16" fill="none" xmlns="http://www.w3.org/2000/svg">
<rect width="50" height="16" rx="4" fill="#E6DEED"/>
<path d="M9.90625 3.50391C9.90625 4.96875 11.8281 6.24609 13.7031 6.50391L13.3281 7.25391C11.7109 6.98438 10.1113 6.08789 9.4375 4.80469C8.76953 6.09375 7.16406 6.98438 5.54688 7.25391L5.17188 6.50391C7.04688 6.24609 8.95703 4.99219 8.95703 3.50391V2.90625H9.90625V3.50391ZM14.1719 8.40234V9.17578H9.85938V12.9492H8.95703V9.17578H4.67969V8.40234H14.1719ZM17.8516 3.33984C19.2695 3.35156 20.2891 4.56445 20.4414 6.51562H22.7734V2.53125H23.6875V12.9727H22.7734V7.27734H20.4531C20.3418 9.31641 19.3047 10.5938 17.8516 10.5938C16.3164 10.5938 15.2383 9.1875 15.2383 6.97266C15.2383 4.75781 16.3164 3.35156 17.8516 3.33984ZM17.8516 4.16016C16.8203 4.17188 16.1172 5.27344 16.1172 6.97266C16.1172 8.67188 16.8203 9.77344 17.8516 9.77344C18.8711 9.77344 19.5859 8.67188 19.5859 6.97266C19.5859 5.27344 18.8711 4.17188 17.8516 4.16016ZM33.5664 2.53125V5.70703H35.1367V6.48047H33.5664V10.2188H32.6523V2.53125H33.5664ZM34.0469 11.9531V12.7266H27.0508V9.42188H27.9531V11.9531H34.0469ZM28.3516 3.26953C29.9102 3.26953 31.082 4.32422 31.0938 5.83594C31.082 7.34766 29.9102 8.40234 28.3516 8.40234C26.793 8.40234 25.6094 7.34766 25.6211 5.83594C25.6094 4.32422 26.793 3.26953 28.3516 3.26953ZM28.3516 4.07812C27.3203 4.07812 26.5117 4.80469 26.5234 5.83594C26.5117 6.86719 27.3203 7.59375 28.3516 7.59375C29.4062 7.59375 30.1914 6.86719 30.1914 5.83594C30.1914 4.80469 29.4062 4.07812 28.3516 4.07812ZM44.6875 2.53125V12.9492H43.7852V7.55859H42.2852V12.4102H41.418V2.76562H42.2852V6.77344H43.7852V2.53125H44.6875ZM37.2344 3.80859V9.43359C38.2715 9.42188 39.373 9.35156 40.6445 9.09375L40.7617 9.91406C39.3086 10.1719 38.1133 10.2539 36.9648 10.2539H36.3203V3.80859H37.2344Z" fill="#4B4B4B"/>
</svg>
