<svg width="60" height="16" viewBox="0 0 60 16" fill="none" xmlns="http://www.w3.org/2000/svg">
<rect width="60" height="16" rx="4" fill="#F2E1E9"/>
<path d="M11.0215 3.35156V4.00781H4.95117V3.35156H7.54102V2.40234H8.44336V3.35156H11.0215ZM7.98633 4.35938C9.48633 4.34766 10.4473 4.88672 10.459 5.76562C10.4473 6.65625 9.48633 7.17188 7.98633 7.18359C6.48633 7.17188 5.52539 6.65625 5.52539 5.76562C5.52539 4.88672 6.48633 4.34766 7.98633 4.35938ZM7.98633 4.98047C7.01367 4.98047 6.4043 5.27344 6.4043 5.76562C6.4043 6.25781 7.01367 6.55078 7.98633 6.55078C8.95898 6.55078 9.58008 6.25781 9.58008 5.76562C9.58008 5.27344 8.95898 4.98047 7.98633 4.98047ZM4.5293 7.66406C6.50977 7.66406 9.09961 7.64062 11.3496 7.37109L11.3965 7.99219C10.4297 8.13281 9.43359 8.2207 8.45508 8.27344V9.16406H13.0254V11.2734H7.02539V12.1758H13.3652V12.832H6.13477V10.6406H12.123V9.82031H6.11133V9.16406H7.54102V8.30859C6.50977 8.34961 5.52539 8.35547 4.6582 8.35547L4.5293 7.66406ZM13.0254 2.53125V8.73047H12.1113V2.53125H13.0254ZM17.9121 5.74219C17.9121 7.41797 18.7676 9.12891 20.1855 9.89062L19.6582 10.582C18.6211 10.0195 17.8711 8.94141 17.4902 7.6875C17.1152 9.02344 16.3711 10.1836 15.334 10.8164L14.7832 10.1133C16.2012 9.29297 17.0332 7.46484 17.0449 5.74219V5.22656H15.0645V4.46484H17.0449V2.91797H17.9238V4.46484H19.8691V5.22656H17.9121V5.74219ZM23.7715 2.53125V12.9492H22.8926V2.53125H23.7715ZM21.6621 2.78906V12.4102H20.7949V7.42969H19.1543V6.64453H20.7949V2.78906H21.6621ZM28.0371 3.33984C29.4551 3.35156 30.4746 4.56445 30.627 6.51562H32.959V2.53125H33.873V12.9727H32.959V7.27734H30.6387C30.5273 9.31641 29.4902 10.5938 28.0371 10.5938C26.502 10.5938 25.4238 9.1875 25.4238 6.97266C25.4238 4.75781 26.502 3.35156 28.0371 3.33984ZM28.0371 4.16016C27.0059 4.17188 26.3027 5.27344 26.3027 6.97266C26.3027 8.67188 27.0059 9.77344 28.0371 9.77344C29.0566 9.77344 29.7715 8.67188 29.7715 6.97266C29.7715 5.27344 29.0566 4.17188 28.0371 4.16016ZM44.5137 2.53125V12.9492H43.6348V7.48828H42.0996V12.4102H41.2559V2.76562H42.0996V6.72656H43.6348V2.53125H44.5137ZM39.8965 3.80859V4.57031H36.9082V9.58594C38.3438 9.58008 39.3398 9.52734 40.4941 9.29297L40.5762 10.0664C39.3223 10.3242 38.2559 10.3711 36.6621 10.3711H35.9941V3.80859H39.8965ZM48.7793 3.33984C49.7344 3.3457 50.5078 3.90234 50.959 4.86328H53.7012V2.53125H54.6152V12.9727H53.7012V8.92969H51.0293C50.5898 9.98438 49.7871 10.5938 48.7793 10.5938C47.2441 10.5938 46.166 9.1875 46.166 6.97266C46.166 4.75781 47.2441 3.35156 48.7793 3.33984ZM48.7793 4.16016C47.748 4.17188 47.0449 5.27344 47.0449 6.97266C47.0449 8.67188 47.748 9.77344 48.7793 9.77344C49.7988 9.77344 50.5137 8.67188 50.5137 6.97266C50.5137 5.27344 49.7988 4.17188 48.7793 4.16016ZM51.2285 5.63672C51.3223 6.04102 51.3809 6.48633 51.3809 6.97266C51.3809 7.40039 51.334 7.80469 51.2637 8.16797H53.7012V5.63672H51.2285Z" fill="#4B4B4B"/>
</svg>
