<svg width="50" height="16" viewBox="0 0 50 16" fill="none" xmlns="http://www.w3.org/2000/svg">
<rect width="50" height="16" rx="4" fill="#E3E2E0"/>
<path d="M8.20703 5.73047C8.19531 7.40625 9.40234 9.24609 10.9141 9.96094L10.3867 10.6875C9.21484 10.1191 8.22461 8.87695 7.76172 7.46484C7.28125 9 6.23242 10.3477 5.06641 10.9453L4.50391 10.2188C6.00391 9.49219 7.29297 7.51172 7.30469 5.73047V4.37109H4.87891V3.60938H10.5508V4.37109H8.20703V5.73047ZM12.7422 2.53125V6.75H14.4883V7.53516H12.7422V12.9492H11.8281V2.53125H12.7422ZM20.3125 3.31641V7.92188H15.4961V3.31641H20.3125ZM16.3984 4.05469V7.17188H19.4219V4.05469H16.3984ZM23.1953 2.53125V5.25H24.7656V6.02344H23.1953V8.70703H22.2812V2.53125H23.1953ZM23.1953 9.26953V12.9727H22.2812V10.0078H16.375V9.26953H23.1953ZM30.625 4.33594V5.08594H25.3984V4.33594H27.5664V2.84766H28.4805V4.33594H30.625ZM28.0117 5.78906C29.3242 5.78906 30.2617 6.77344 30.2734 8.15625C30.2617 9.55078 29.3242 10.5469 28.0117 10.5469C26.7109 10.5469 25.7734 9.55078 25.7734 8.15625C25.7734 6.77344 26.7109 5.78906 28.0117 5.78906ZM28.0117 6.5625C27.1914 6.57422 26.5938 7.24219 26.5938 8.15625C26.5938 9.08203 27.1914 9.75 28.0117 9.73828C28.8438 9.75 29.4531 9.08203 29.4531 8.15625C29.4531 7.24219 28.8438 6.57422 28.0117 6.5625ZM34.293 2.53125V12.9492H33.4141V7.6875H32.0312V12.4336H31.1641V2.78906H32.0312V6.92578H33.4141V2.53125H34.293ZM44.4297 2.53125V7.92188H43.5039V5.21484H41.1836V4.45312H43.5039V2.53125H44.4297ZM44.4297 8.44922V10.9336H38.6055V12.0703H44.8164V12.8086H37.7031V10.2305H43.5156V9.1875H37.6797V8.44922H44.4297ZM39.3438 3.85547C39.332 5.22656 40.4102 6.46875 41.9336 6.97266L41.4414 7.6875C40.2871 7.27734 39.3672 6.45703 38.9102 5.40234C38.4648 6.5918 37.5215 7.5 36.2852 7.94531L35.7812 7.20703C37.3516 6.69141 38.4297 5.37891 38.4414 3.85547V2.87109H39.3438V3.85547Z" fill="#4B4B4B"/>
</svg>
