<svg width="14" height="16" viewBox="0 0 14 16" fill="none" xmlns="http://www.w3.org/2000/svg">
<path d="M7.00008 15.2001C6.85158 15.2001 6.7135 15.1755 6.58583 15.1264C6.45817 15.0772 6.32863 15.0009 6.19721 14.8972C5.79658 14.5554 5.29472 14.0888 4.69163 13.4974C4.08853 12.9061 3.50119 12.2421 2.92961 11.5054C2.35802 10.7688 1.87298 9.97953 1.47448 9.13765C1.07597 8.29576 0.876709 7.45067 0.876709 6.60238C0.876709 4.90155 1.44669 3.44536 2.58665 2.23382C3.72659 1.02228 5.19774 0.416504 7.00008 0.416504C8.78854 0.416504 10.2562 1.02228 11.4031 2.23382C12.55 3.44536 13.1235 4.90155 13.1235 6.60238C13.1235 7.45067 12.9207 8.2979 12.5153 9.14407C12.1098 9.99022 11.6261 10.783 11.0641 11.5223C10.5022 12.2616 9.91966 12.9221 9.31656 13.5038C8.71347 14.0856 8.2116 14.5474 7.81096 14.8892C7.68147 14.9929 7.55169 15.0706 7.42161 15.1224C7.29151 15.1742 7.151 15.2001 7.00008 15.2001ZM7.0015 7.88763C7.37449 7.88763 7.69079 7.75735 7.9504 7.4968C8.21001 7.23624 8.33981 6.91947 8.33981 6.54648C8.33981 6.1735 8.20954 5.8572 7.94898 5.59759C7.68842 5.33798 7.37165 5.20817 6.99867 5.20817C6.62568 5.20817 6.30938 5.33845 6.04977 5.599C5.79016 5.85956 5.66035 6.17633 5.66035 6.54932C5.66035 6.9223 5.79063 7.2386 6.05119 7.49821C6.31174 7.75782 6.62851 7.88763 7.0015 7.88763Z" fill="#8E8E8E"/>
</svg>
